# xmcd
#
# Track frame offsets: 
#        150
#        11597
#        31170
#        49342
#        70042
#        89900
#        114142
#        135505
#        160227
#        178622
#        198947
#        214872
#
# Disc length: 3086 seconds
#
# Revision: 5
# Processed by: cddbd v1.5.2PL0 Copyright (c) Steve Scherf et al.
# Submitted via: ExactAudioCopyFreeDBPlugin 1.0
#
DISCID=9f0c0c0c
DTITLE=莫文蔚 - 你可以
DYEAR=1999
DGENRE=Pop
TTITLE0=消滅
TTITLE1=愛情真偉大
TTITLE2=陰天
TTITLE3=鑽石
TTITLE4=Pretty In Love
TTITLE5=愛情有什麼道理
TTITLE6=欠我的時光
TTITLE7=我累了
TTITLE8=寂寞浦公英
TTITLE9=話題
TTITLE10=實況轉播
TTITLE11=我不能沒信心，愛不是佔有
EXTD=
EXTT0=
EXTT1=
EXTT2=
EXTT3=
EXTT4=
EXTT5=
EXTT6=
EXTT7=
EXTT8=
EXTT9=
EXTT10=
EXTT11=
PLAYORDER=
